<svg xmlns="http://www.w3.org/2000/svg" width="24" height="24" fill="currentColor" viewBox="0 0 24 24">
  <path fill-rule="evenodd" d="M11.945 8.893a.65.65 0 0 1 .65-.65c2.096 0 3.758 1.763 3.758 3.823 0 2.1-1.697 3.679-3.733 3.757a.65.65 0 1 1-.05-1.299c1.403-.054 2.483-1.12 2.483-2.458 0-1.378-1.115-2.523-2.458-2.523a.65.65 0 0 1-.65-.65Z" clip-rule="evenodd"/>
  <path fill-rule="evenodd" d="M11.945 4.595a.65.65 0 0 1 .65-.65h1.19a.65.65 0 0 1 .637.522l.184.917c.446.128.865.312 1.272.547l.772-.545a.65.65 0 0 1 .834.071l1.653 1.653a.65.65 0 0 1 .072.835l-.563.797c.204.4.382.807.533 1.24l.948.19a.65.65 0 0 1 .523.638v2.314a.65.65 0 0 1-.523.637l-.916.184a5.64 5.64 0 0 1-.547 1.272l.545.772a.65.65 0 0 1-.072.834l-1.653 1.653a.65.65 0 0 1-.798.095l-.873-.533a9.73 9.73 0 0 1-1.267.546l-.19.948a.65.65 0 0 1-.637.523h-1.19a.65.65 0 1 1 0-1.3h.657l.16-.8a.65.65 0 0 1 .45-.495 8.542 8.542 0 0 0 1.723-.74.65.65 0 0 1 .655.015l.753.46.904-.904-.478-.677a.65.65 0 0 1-.01-.735c.358-.536.584-1.053.697-1.618a.65.65 0 0 1 .51-.51l.8-.16v-1.248l-.8-.16a.65.65 0 0 1-.495-.451 8.543 8.543 0 0 0-.739-1.722.65.65 0 0 1 .037-.69l.478-.678-.879-.878-.676.478a.65.65 0 0 1-.736.01c-.536-.358-1.053-.585-1.618-.698a.65.65 0 0 1-.51-.51l-.16-.8h-.657a.65.65 0 0 1-.65-.65Zm-1.959-.339a.65.65 0 0 1 .171.904c-.886 1.3-1.54 3.859-1.54 6.84 0 2.982.654 5.54 1.54 6.84a.65.65 0 0 1-1.074.733C7.986 17.964 7.317 15.102 7.317 12c0-3.101.67-5.964 1.766-7.573a.65.65 0 0 1 .903-.17Z" clip-rule="evenodd"/>
  <path fill-rule="evenodd" d="M3.35 11.47a.65.65 0 0 1 .65-.65h6.612a.65.65 0 1 1 0 1.3H4a.65.65 0 0 1-.65-.65Zm1.454-3.966a.65.65 0 0 1 .65-.65h5.157a.65.65 0 1 1 0 1.3H5.454a.65.65 0 0 1-.65-.65Zm-.594 7.934a.65.65 0 0 1 .65-.65h5.751a.65.65 0 0 1 0 1.3H4.86a.65.65 0 0 1-.65-.65Z" clip-rule="evenodd"/>
  <path fill-rule="evenodd" d="M11.259 4.534a.65.65 0 0 1-.587.708c-1.919.18-3.605 1.2-4.692 2.644-.736 1.045-1.268 2.308-1.33 3.6V12c0 1.138.299 2.228.787 3.207a6.748 6.748 0 0 0 5.243 3.552.65.65 0 0 1-.136 1.293 8.049 8.049 0 0 1-6.259-4.242l-.007-.014C3.711 14.66 3.35 13.37 3.35 12v-.559c.074-1.608.728-3.114 1.574-4.312l.01-.015c1.294-1.724 3.308-2.95 5.617-3.166a.65.65 0 0 1 .708.586Z" clip-rule="evenodd"/>
</svg>
