<?xml version="1.0" encoding="UTF-8"?>
<svg width="264px" height="104px" viewBox="0 0 264 104" version="1.1" xmlns="http://www.w3.org/2000/svg" xmlns:xlink="http://www.w3.org/1999/xlink">
    <!-- Generator: Sketch 63.1 (92452) - https://sketch.com -->
    <title>Brand/Logo/Color</title>
    <desc>Created with Sketch.</desc>
    <defs>
        <polygon id="path-1" points="0.1271 0.7175 30.0831 0.7175 30.0831 44 0.1271 44"></polygon>
        <polygon id="path-3" points="2.84217094e-14 0.5 38.4577703 0.5 38.4577703 52.9307 2.84217094e-14 52.9307"></polygon>
    </defs>
    <g id="Brand/Logo/Color" stroke="none" stroke-width="1" fill="none" fill-rule="evenodd">
        <g id="Brand/Logo---Color">
            <path d="M24.8384,69.7397 C26.0654,68.9147 27.0134,67.8797 27.6624,66.6567 C28.4844,65.1097 28.9014,63.5437 28.9014,62.0067 C28.9014,60.3837 28.6254,58.8767 28.0794,57.5257 C27.5284,56.1717 26.7404,54.9947 25.7384,54.0317 C24.7354,53.0697 23.4934,52.3157 22.0514,51.7897 C20.6264,51.2667 19.0034,50.9997 17.2284,50.9997 L0.0004,50.9997 L0.0004,90.7837 L17.3384,90.7837 C19.2594,90.7837 21.0164,90.4807 22.5614,89.8807 C24.1154,89.2777 25.4574,88.4287 26.5474,87.3587 C27.6384,86.2887 28.4894,85.0147 29.0784,83.5667 C29.6604,82.1297 29.9564,80.5537 29.9564,78.8897 C29.9564,76.7927 29.4724,74.8497 28.5174,73.1187 C27.7214,71.6737 26.4844,70.5387 24.8384,69.7397 L24.8384,69.7397 Z M5.9674,56.7437 L17.2284,56.7437 C18.9964,56.7437 20.4174,57.1557 21.4494,57.9687 C22.4354,58.7497 22.9344,60.0897 22.9344,61.9517 C22.9344,62.9227 22.7704,63.7457 22.4454,64.3937 C22.1184,65.0457 21.6924,65.5817 21.1754,65.9857 C20.6504,66.3937 20.0524,66.6937 19.3954,66.8777 C18.7084,67.0647 18.0354,67.1587 17.3944,67.1587 L5.9674,67.1587 L5.9674,56.7437 Z M22.2264,83.3917 C21.0344,84.4497 19.4654,84.9857 17.5594,84.9857 L5.9674,84.9857 L5.9674,72.9047 L17.3944,72.9047 C19.3904,72.9047 21.0204,73.3747 22.2354,74.3017 C23.4004,75.1907 23.9894,76.7537 23.9894,78.9457 C23.9894,80.8577 23.3964,82.3537 22.2264,83.3917 L22.2264,83.3917 Z" id="Fill-1" fill="#242963"></path>
            <path d="M59.1831,64.7412 C57.7761,63.2772 56.1461,62.1462 54.3381,61.3792 C50.5821,59.7812 46.3441,59.8722 42.8411,61.4672 C41.0351,62.2942 39.4381,63.4242 38.0961,64.8242 C36.7491,66.2342 35.6691,67.9042 34.8891,69.7932 C34.1031,71.6912 33.7041,73.7422 33.7041,75.8882 C33.7041,78.0722 34.1031,80.1362 34.8911,82.0182 C35.6741,83.8932 36.7641,85.5462 38.1301,86.9342 C39.4871,88.3112 41.1121,89.4212 42.9601,90.2352 C44.8121,91.0412 46.8391,91.4512 48.9871,91.4512 C52.4331,91.4512 55.4121,90.5812 57.8411,88.8672 C60.0701,87.2912 61.7441,85.0172 62.8181,82.1042 L63.0041,81.6012 L56.5301,81.6012 L56.4221,81.7862 C55.6701,83.0662 54.8251,83.9992 53.8401,84.6392 C52.5221,85.4952 50.8881,85.9282 48.9871,85.9282 C47.8821,85.9282 46.7981,85.7262 45.7651,85.3312 C44.7271,84.9302 43.7741,84.3472 42.9331,83.5912 C42.0891,82.8312 41.3681,81.8902 40.7911,80.7922 C40.3161,79.8822 39.9851,78.8572 39.8101,77.7352 L63.7691,77.7352 L63.7691,77.1112 C63.7691,74.4902 63.3521,72.1132 62.5301,70.0492 C61.7111,67.9892 60.5851,66.2042 59.1831,64.7412 L59.1831,64.7412 Z M40.2031,72.2662 C40.4761,71.4272 40.8491,70.6532 41.3131,69.9642 C41.9221,69.0582 42.6271,68.2822 43.4071,67.6592 C44.1731,67.0432 45.0301,66.5622 45.9471,66.2322 C47.7971,65.5702 49.7191,65.5802 51.5141,66.2562 C52.4261,66.6012 53.2711,67.0982 54.0261,67.7292 C54.7891,68.3732 55.4681,69.1582 56.0391,70.0582 C56.4711,70.7382 56.8241,71.4792 57.0921,72.2662 L40.2031,72.2662 Z" id="Fill-3" fill="#242963"></path>
            <path d="M147.4326,60.2788 L147.4306,60.2788 C146.5246,60.3928 145.6176,60.6188 144.7356,60.9508 C143.8516,61.2868 143.0166,61.7448 142.2526,62.3118 C141.9326,62.5508 141.6246,62.8138 141.3306,63.0978 L141.3306,60.9388 L135.5326,60.9388 L135.5326,90.7838 L141.4976,90.7838 L141.4976,73.6128 C141.4976,72.2718 141.7296,71.1108 142.1846,70.1628 C142.6416,69.2168 143.2566,68.4298 144.0136,67.8268 C144.7756,67.2158 145.6806,66.7698 146.7006,66.4968 C147.7436,66.2198 148.8616,66.1218 149.9956,66.1828 L150.6596,66.2268 L150.6596,60.3558 L150.1206,60.2818 C149.2746,60.1678 148.3696,60.1628 147.4326,60.2788" id="Fill-5" fill="#242963"></path>
            <path d="M179.9492,76.335 C179.9492,77.695 179.7372,78.96 179.3222,80.09 C178.9082,81.208 178.3012,82.187 177.5122,83.011 C176.7222,83.834 175.7422,84.483 174.5922,84.945 C173.4312,85.413 172.0612,85.648 170.5212,85.648 C168.9802,85.648 167.6102,85.413 166.4502,84.944 C165.2982,84.483 164.3052,83.831 163.4962,83.004 C162.6942,82.187 162.0782,81.208 161.6662,80.09 C161.2492,78.96 161.0382,77.695 161.0382,76.335 L161.0382,51 L155.1282,51 L155.1282,76.335 C155.1282,78.553 155.4972,80.609 156.2262,82.45 C156.9572,84.297 158.0142,85.91 159.3662,87.244 C160.7202,88.581 162.3622,89.625 164.2432,90.351 C166.1182,91.082 168.2312,91.451 170.5212,91.451 C172.7702,91.451 174.8642,91.082 176.7442,90.353 C178.6292,89.625 180.2692,88.579 181.6222,87.244 C182.9712,85.91 184.0372,84.299 184.7892,82.455 C185.5362,80.612 185.9162,78.553 185.9162,76.335 L185.9162,51 L179.9492,51 L179.9492,76.335 Z" id="Fill-7" fill="#242963"></path>
            <g id="Group-11" transform="translate(191.000000, 59.500000)">
                <mask id="mask-2" fill="white">
                    <use xlink:href="#path-1"></use>
                </mask>
                <g id="Clip-10"></g>
                <path d="M28.9551,10.2715 C28.2101,8.3965 27.1691,6.7265 25.8641,5.3065 C24.5521,3.8775 22.9581,2.7435 21.1331,1.9355 C19.3001,1.1295 17.3001,0.7175 15.1891,0.7175 C12.9721,0.7175 10.9221,1.2705 9.0941,2.3605 C7.8731,3.0865 6.8101,3.9265 5.9281,4.8635 L5.9281,1.4385 L0.1271,1.4385 L0.1271,44.0005 L6.0951,44.0005 L6.0951,28.0195 C6.9851,28.9295 8.0421,29.7395 9.2431,30.4255 C11.0171,31.4375 13.0171,31.9505 15.1891,31.9505 C17.3001,31.9505 19.3001,31.5405 21.1331,30.7315 C22.9661,29.9195 24.5591,28.7875 25.8641,27.3625 C27.1691,25.9415 28.2101,24.2635 28.9571,22.3655 C29.7041,20.4675 30.0831,18.4195 30.0831,16.2805 C30.0831,14.1715 29.7041,12.1515 28.9551,10.2715 M23.4071,20.2175 C22.9361,21.4385 22.2911,22.5275 21.4921,23.4515 C20.7021,24.3595 19.7511,25.0845 18.6691,25.5985 C16.5171,26.6265 13.8581,26.6265 11.7081,25.5985 C10.6191,25.0805 9.6481,24.3535 8.8211,23.4395 C7.9841,22.5175 7.3141,21.4325 6.8251,20.2105 C6.3401,18.9975 6.0951,17.6725 6.0951,16.2805 C6.0951,14.9215 6.3401,13.6165 6.8251,12.4015 C7.3141,11.1825 7.9841,10.1065 8.8141,9.2025 C9.6491,8.3025 10.6221,7.5835 11.7081,7.0685 C12.7861,6.5535 13.9571,6.2945 15.1891,6.2945 C16.4201,6.2945 17.5911,6.5535 18.6691,7.0685 C19.7531,7.5835 20.7041,8.2985 21.4951,9.1945 C22.2951,10.0985 22.9381,11.1735 23.4071,12.3935 C23.8781,13.6095 24.1171,14.9175 24.1171,16.2805 C24.1171,17.6795 23.8781,19.0045 23.4071,20.2175" id="Fill-9" fill="#242963" mask="url(#mask-2)"></path>
            </g>
            <path d="M125.915,64.7412 C124.508,63.2772 122.878,62.1462 121.07,61.3792 C117.314,59.7812 113.078,59.8722 109.573,61.4672 C107.767,62.2942 106.17,63.4242 104.83,64.8242 C103.481,66.2342 102.402,67.9042 101.621,69.7932 C100.835,71.6912 100.436,73.7422 100.436,75.8882 C100.436,78.0722 100.835,80.1362 101.623,82.0182 C102.406,83.8932 103.496,85.5462 104.862,86.9342 C106.219,88.3112 107.844,89.4212 109.694,90.2352 C111.546,91.0412 113.571,91.4512 115.719,91.4512 C119.166,91.4512 122.145,90.5812 124.574,88.8672 C126.803,87.2912 128.477,85.0172 129.55,82.1042 L129.736,81.6012 L123.264,81.6012 L123.156,81.7862 C122.402,83.0662 121.558,84.0012 120.573,84.6392 C119.254,85.4952 117.62,85.9282 115.719,85.9282 C114.614,85.9282 113.53,85.7262 112.499,85.3312 C111.459,84.9302 110.506,84.3472 109.665,83.5912 C108.821,82.8312 108.1,81.8902 107.523,80.7922 C107.048,79.8822 106.717,78.8572 106.542,77.7352 L130.501,77.7352 L130.501,77.1112 C130.501,74.4902 130.085,72.1132 129.263,70.0492 C128.443,67.9892 127.317,66.2042 125.915,64.7412 L125.915,64.7412 Z M106.935,72.2662 C107.208,71.4272 107.581,70.6532 108.045,69.9642 C108.654,69.0582 109.36,68.2822 110.139,67.6592 C110.905,67.0432 111.762,66.5622 112.679,66.2322 C114.529,65.5702 116.453,65.5802 118.246,66.2562 C119.158,66.6012 120.005,67.0982 120.758,67.7292 C121.521,68.3732 122.199,69.1582 122.771,70.0582 C123.203,70.7382 123.557,71.4792 123.824,72.2662 L106.935,72.2662 Z" id="Fill-12" fill="#242963"></path>
            <path d="M95.9941,85.083 C95.2911,84.931 94.6651,84.651 94.1341,84.247 C93.6131,83.854 93.1921,83.293 92.8871,82.582 C92.5711,81.852 92.4101,80.891 92.4101,79.722 L92.4101,66.446 L97.4131,66.446 L97.4131,61.176 L92.4101,61.176 L92.4101,53.842 L86.4991,53.842 L86.4991,61.176 L76.0641,61.176 L76.0641,53.842 L70.1521,53.842 L70.1521,61.176 L65.1861,61.176 L65.1861,66.446 L70.1521,66.446 L70.1521,79.722 C70.1521,81.607 70.4471,83.303 71.0301,84.756 C71.6191,86.227 72.4461,87.461 73.4881,88.426 C74.5411,89.396 75.8261,90.091 77.3071,90.484 C78.2811,90.746 79.3321,90.877 80.4351,90.877 C80.9731,90.877 81.5381,90.845 82.1171,90.782 L82.6711,90.72 L82.6711,85.153 L81.9971,85.209 C81.1651,85.272 80.3761,85.233 79.6471,85.083 C78.9441,84.931 78.3181,84.651 77.7871,84.247 C77.2651,83.854 76.8471,83.293 76.5401,82.582 C76.2241,81.852 76.0641,80.891 76.0641,79.722 L76.0641,66.446 L86.4991,66.446 L86.4991,79.722 C86.4991,81.607 86.7931,83.303 87.3771,84.756 C87.9651,86.227 88.7921,87.461 89.8351,88.426 C90.8881,89.396 92.1721,90.091 93.6531,90.484 C94.6271,90.746 95.6791,90.877 96.7821,90.877 C97.3201,90.877 97.8851,90.845 98.4641,90.782 L99.0181,90.72 L99.0181,85.153 L98.3451,85.209 C97.5111,85.272 96.7221,85.233 95.9941,85.083" id="Fill-14" fill="#242963"></path>
            <path d="M232.4736,53.4316 C232.4456,53.6166 232.4086,53.7986 232.3926,53.9856 C231.8346,60.7466 231.9846,66.1206 235.1576,69.2946 C238.4126,72.5496 248.4326,71.4906 252.0946,63.0976 C253.3166,60.2966 252.5256,56.6056 250.8726,53.3266 C248.3386,55.7226 245.6236,57.3016 242.8496,57.9216 C242.3716,58.0286 241.8976,58.0936 241.4276,58.1176 C238.1376,58.2896 235.0586,56.4986 232.4736,53.4316" id="Fill-16" fill="#33A8FF"></path>
            <g id="Group-20" transform="translate(225.000000, 0.500000)">
                <mask id="mask-4" fill="white">
                    <use xlink:href="#path-3"></use>
                </mask>
                <g id="Clip-19"></g>
                <path d="M25.873,52.8257 C30.698,48.2617 34.852,40.6747 37.412,30.7017 C41.858,13.3807 31.523,1.3877 17.849,0.5557 C0.565,-0.4943 2.84217094e-14,13.2867 2.84217094e-14,28.9887 C2.84217094e-14,38.4537 2.991,47.6137 7.474,52.9307 C7.833,50.5137 9.199,48.2997 11.044,46.7887 C11.731,46.2257 12.489,45.7727 13.281,45.4297 C14.313,44.9847 15.407,44.7337 16.513,44.7617 C16.639,44.7647 16.766,44.7877 16.892,44.7987 C17.417,44.8407 17.942,44.9277 18.461,45.0977 C18.674,45.1687 18.883,45.2677 19.094,45.3607 C19.201,45.4087 19.311,45.4417 19.417,45.4947 L19.417,45.4957 C21.663,46.6307 24.206,49.5197 25.873,52.8257" id="Fill-18" fill="#FF6A4C" mask="url(#mask-4)"></path>
            </g>
            <path d="M244.0937,45.8608 C243.8827,45.7678 243.6737,45.6688 243.4607,45.5978 C242.9427,45.4268 242.4167,45.3408 241.8917,45.2988 C241.7657,45.2878 241.6387,45.2648 241.5127,45.2618 C240.4067,45.2338 239.3137,45.4848 238.2817,45.9298 C237.4897,46.2728 236.7317,46.7258 236.0437,47.2888 C234.1987,48.7998 232.8327,51.0138 232.4737,53.4308 L232.4737,53.4318 C235.0587,56.4988 238.1377,58.2898 241.4277,58.1178 C241.8977,58.0928 242.3717,58.0278 242.8497,57.9218 C245.6237,57.3008 248.3387,55.7228 250.8727,53.3258 C249.2057,50.0198 246.6627,47.1308 244.4167,45.9948 C244.3107,45.9418 244.2007,45.9088 244.0937,45.8608" id="Fill-21" fill="#242963"></path>
        </g>
    </g>
</svg>