<svg xmlns="http://www.w3.org/2000/svg" width="20" height="36" viewBox="0 0 20 36">
    <g fill="none" fill-rule="evenodd">
        <path d="M-8 0h36v36H-8z"/>
        <path fill="#33A8FF" d="M3.97 26.948c-.013.095-.033.189-.04.285-.286 3.475-.21 6.237 1.412 7.868 1.663 1.673 6.783 1.129 8.654-3.185.624-1.44.22-3.336-.624-5.022-1.295 1.232-2.682 2.043-4.1 2.362-1.952.438-3.792-.507-5.301-2.308"/>
        <path fill="#FF6A4C" d="M19.267 15.523C21.54 6.62 16.26.456 9.272.029.44-.51.152 6.572.152 14.642c0 4.865 1.529 9.573 3.819 12.306.42-2.84 3.525-5.132 6.102-3.822 1.148.583 2.447 2.068 3.299 3.768 2.465-2.346 4.587-6.246 5.895-11.371"/>
        <path fill="#242963" d="M10.073 23.126c-2.577-1.31-5.683.981-6.102 3.822 1.509 1.801 3.348 2.747 5.301 2.307 1.418-.318 2.805-1.13 4.1-2.362-.852-1.699-2.151-3.184-3.3-3.767"/>
    </g>
</svg>
