<svg width="32" height="32" viewBox="0 0 32 32" fill="none" xmlns="http://www.w3.org/2000/svg">
<path fill-rule="evenodd" clip-rule="evenodd" d="M16.0034 8.80225C16.482 8.80225 16.8701 9.19027 16.8701 9.66891V17.0022C16.8701 17.4809 16.482 17.8689 16.0034 17.8689C15.5247 17.8689 15.1367 17.4809 15.1367 17.0022V9.66891C15.1367 9.19027 15.5247 8.80225 16.0034 8.80225Z" fill="#CA232F"/>
<path d="M16.0029 22.1928C16.45 22.1928 16.8124 21.8303 16.8124 21.3833C16.8124 20.9362 16.45 20.5737 16.0029 20.5737C15.5558 20.5737 15.1934 20.9362 15.1934 21.3833C15.1934 21.8303 15.5558 22.1928 16.0029 22.1928Z" fill="#CA232F"/>
<path fill-rule="evenodd" clip-rule="evenodd" d="M16.0032 20.9074C15.7402 20.9074 15.527 21.1206 15.527 21.3836C15.527 21.6466 15.7402 21.8598 16.0032 21.8598C16.2662 21.8598 16.4794 21.6466 16.4794 21.3836C16.4794 21.1206 16.2662 20.9074 16.0032 20.9074ZM14.8604 21.3836C14.8604 20.7524 15.372 20.2407 16.0032 20.2407C16.6344 20.2407 17.1461 20.7524 17.1461 21.3836C17.1461 22.0148 16.6344 22.5264 16.0032 22.5264C15.372 22.5264 14.8604 22.0148 14.8604 21.3836Z" fill="#CA232F"/>
<path fill-rule="evenodd" clip-rule="evenodd" d="M6.59764 15.3903C6.25955 15.7284 6.25955 16.2765 6.59764 16.6146L15.39 25.407C15.7281 25.745 16.2762 25.745 16.6143 25.407L25.4067 16.6146C25.7448 16.2765 25.7448 15.7284 25.4067 15.3903L16.6143 6.59792C16.2762 6.25984 15.7281 6.25984 15.39 6.59792L6.59764 15.3903ZM5.37198 17.8402C4.35699 16.8253 4.35699 15.1796 5.37198 14.1646L14.1644 5.37227C15.1793 4.35728 16.825 4.35728 17.84 5.37227L26.6323 14.1646C27.6473 15.1796 27.6473 16.8253 26.6323 17.8402L17.84 26.6326C16.825 27.6476 15.1793 27.6476 14.1644 26.6326L5.37198 17.8402Z" fill="#CA232F"/>
</svg>
