<svg xmlns="http://www.w3.org/2000/svg" width="24" height="24" fill="currentColor" viewBox="0 0 24 24">
  <path fill-rule="evenodd" d="M7.52 8.61a.65.65 0 0 1-.13.91L4.083 12l3.307 2.48a.65.65 0 0 1-.78 1.04l-4-3a.65.65 0 0 1 0-1.04l4-3a.65.65 0 0 1 .91.13Zm8.96 0a.65.65 0 0 1 .91-.13l4 3a.65.65 0 0 1 0 1.04l-4 3a.65.65 0 0 1-.78-1.04L19.917 12 16.61 9.52a.65.65 0 0 1-.13-.91Zm-3.352-2.247a.65.65 0 0 1 .51.765l-2.001 10a.65.65 0 1 1-1.275-.255l2.001-10a.65.65 0 0 1 .765-.51Z" clip-rule="evenodd"/>
</svg>
