<svg xmlns="http://www.w3.org/2000/svg" width="24" height="24" fill="currentColor" viewBox="0 0 24 24">
  <path fill-rule="evenodd" d="M18.14 17.51a.65.65 0 0 1-.51.764l-3.736.747a.65.65 0 1 1-.255-1.274L17.375 17a.65.65 0 0 1 .765.51Zm-3.926-5.112a.89.89 0 0 0-.714.044l-.008.004-1.754.876a.54.54 0 0 0-.244.67l.002.007a.508.508 0 0 0 .266.284.462.462 0 0 0 .361.005l1.761-.743a.65.65 0 1 1 .506 1.197l-1.769.747a1.763 1.763 0 0 1-1.387-.019h-.003a1.807 1.807 0 0 1-.95-1.01 1.84 1.84 0 0 1 .853-2.29l.015-.007 1.76-.878a2.189 2.189 0 0 1 1.765-.103l.01.004 3.621 1.427a.65.65 0 1 1-.476 1.21l-3.615-1.425Z" clip-rule="evenodd"/>
  <path fill-rule="evenodd" d="M12.606 14.129a.65.65 0 0 1 .918.048l1.832 2.036.03.037a1.307 1.307 0 0 1-.2 1.807l-3.325 2.746a1.298 1.298 0 0 1-1.748-.087l-2.158-1.652H6.927a.65.65 0 1 1 0-1.3h1.249a.65.65 0 0 1 .395.134l2.373 1.817a.651.651 0 0 1 .09.084l3.323-2.744a.008.008 0 0 0 .003-.005l-1.803-2.003a.65.65 0 0 1 .049-.918Zm-3.139-2.187a2.046 2.046 0 0 1 1.997.27l.193.156a.65.65 0 1 1-.818 1.01l-.18-.145a.747.747 0 0 0-.703-.087l-2.78 1.184a.65.65 0 0 1-.508-1.197l2.786-1.186.013-.005Z" clip-rule="evenodd"/>
  <path fill-rule="evenodd" d="M6.014 12.496a1.54 1.54 0 0 1 1.602 1.486v4.181l-.001.038a1.54 1.54 0 0 1-1.6 1.449H4a.65.65 0 1 1 0-1.3h2.064a.24.24 0 0 0 .252-.212v-4.13a.24.24 0 0 0-.252-.213l-.035.001H4a.65.65 0 1 1 0-1.3h2.014Zm12.39 1.299a.24.24 0 0 0-.252.213v4.13a.24.24 0 0 0 .252.213l.035-.001H20a.65.65 0 1 1 0 1.3h-1.546a1.54 1.54 0 0 1-1.602-1.487v-4.181c0-.013 0-.026.002-.039a1.54 1.54 0 0 1 1.6-1.447H20a.65.65 0 1 1 0 1.3h-1.596ZM10.34 3.716a1.374 1.374 0 0 0-1.393 2.28l.01.01 2.95 3.079 2.963-3.09a1.374 1.374 0 1 0-1.943-1.943l-.559.56a.65.65 0 0 1-.919 0l-.559-.56a1.374 1.374 0 0 0-.55-.336Zm-2.813.112a2.673 2.673 0 0 0 .496 3.081l3.415 3.565a.65.65 0 0 0 .938 0l3.418-3.565a2.674 2.674 0 0 0-3.786-3.776l-.1.1-.098-.1a2.673 2.673 0 0 0-4.283.695Z" clip-rule="evenodd"/>
</svg>
