<svg xmlns="http://www.w3.org/2000/svg" width="24" height="24" fill="currentColor" viewBox="0 0 24 24">
  <path fill-rule="evenodd" d="M3.85 5.3c0-.8.65-1.45 1.45-1.45h4.622c.801 0 1.45.65 1.45 1.45v6.4c0 .8-.649 1.45-1.45 1.45H5.3c-.8 0-1.45-.65-1.45-1.45V5.3Zm1.45-.15a.15.15 0 0 0-.15.15v6.4c0 .083.067.15.15.15h4.622a.15.15 0 0 0 .15-.15V5.3a.15.15 0 0 0-.15-.15H5.3Zm7.55 7.15c0-.8.65-1.45 1.45-1.45h4.622c.801 0 1.45.65 1.45 1.45v6.4c0 .8-.649 1.45-1.45 1.45H14.3c-.8 0-1.45-.65-1.45-1.45v-6.4Zm1.45-.15a.15.15 0 0 0-.15.15v6.4c0 .083.067.15.15.15h4.622a.15.15 0 0 0 .15-.15v-6.4a.15.15 0 0 0-.15-.15H14.3ZM3.85 16.3c0-.8.65-1.45 1.45-1.45h4.62c.8 0 1.45.65 1.45 1.45v2.4c0 .8-.65 1.45-1.45 1.45H5.3c-.8 0-1.45-.65-1.45-1.45v-2.4Zm1.45-.15a.15.15 0 0 0-.15.15v2.4c0 .083.067.15.15.15h4.62a.15.15 0 0 0 .15-.15v-2.4a.15.15 0 0 0-.15-.15H5.3ZM12.85 5.3c0-.8.65-1.45 1.45-1.45h4.62c.8 0 1.45.65 1.45 1.45v2.4c0 .8-.65 1.45-1.45 1.45H14.3c-.8 0-1.45-.65-1.45-1.45V5.3Zm1.45-.15a.15.15 0 0 0-.15.15v2.4c0 .083.067.15.15.15h4.62a.15.15 0 0 0 .15-.15V5.3a.15.15 0 0 0-.15-.15H14.3Z" clip-rule="evenodd"/>
</svg>
