<svg width="32" height="32" viewBox="0 0 32 32" fill="none" xmlns="http://www.w3.org/2000/svg">
<path fill-rule="evenodd" clip-rule="evenodd" d="M22.0954 6.20013C21.9923 6.20013 21.8902 6.22074 21.7951 6.26074C21.7001 6.30074 21.614 6.35934 21.5418 6.43308L21.5336 6.44155L8.17409 19.7361L6.58348 25.4168L12.2642 23.8262L25.5588 10.4668L25.5628 10.4628C25.6354 10.3908 25.693 10.3052 25.7323 10.2108C25.7716 10.1165 25.7918 10.0153 25.7918 9.91305C25.7918 9.81084 25.7716 9.70965 25.7323 9.6153C25.693 9.52095 25.6354 9.43531 25.5628 9.36334L25.5585 9.35912L22.649 6.4331C22.5769 6.35936 22.4908 6.30074 22.3957 6.26074C22.3007 6.22074 22.1986 6.20013 22.0954 6.20013ZM21.1228 4.6631C21.4307 4.53354 21.7614 4.4668 22.0954 4.4668C22.4295 4.4668 22.7601 4.53354 23.068 4.6631C23.3747 4.79214 23.6526 4.9809 23.8855 5.21838C23.8865 5.21934 23.8874 5.2203 23.8884 5.22127L26.7834 8.13267C26.7842 8.13346 26.785 8.13424 26.7858 8.13503C27.0197 8.36765 27.2054 8.64416 27.3323 8.9487C27.4596 9.25427 27.5252 9.58202 27.5252 9.91305C27.5252 10.2441 27.4596 10.5718 27.3323 10.8774C27.2054 11.182 27.0197 11.4585 26.7857 11.6911C26.785 11.6919 26.7842 11.6927 26.7834 11.6934L13.3319 25.2106C13.2264 25.3166 13.0953 25.3935 12.9513 25.4338L5.56716 27.5014C5.26566 27.5858 4.94206 27.501 4.72066 27.2796C4.49926 27.0582 4.41449 26.7346 4.49892 26.4331L6.56647 19.049C6.60679 18.905 6.6837 18.7739 6.7897 18.6684L20.3071 5.21654C20.5397 4.97993 20.817 4.7918 21.1228 4.6631Z" fill="#159A56"/>
</svg>
