<svg width="32" height="32" viewBox="0 0 32 32" fill="none" xmlns="http://www.w3.org/2000/svg">
<path fill-rule="evenodd" clip-rule="evenodd" d="M15.9461 12.204C15.6474 12.1834 15.3488 12.2452 15.0828 12.3828C14.8169 12.5204 14.5939 12.7285 14.4382 12.9843C14.2826 13.2401 14.2002 13.5337 14.2001 13.8332C14.2 14.3118 13.8119 14.6997 13.3333 14.6997C12.8547 14.6996 12.4667 14.3115 12.4668 13.8328C12.4669 13.2156 12.6367 12.6103 12.9576 12.0831C13.2784 11.5559 13.7381 11.127 14.2862 10.8434C14.8344 10.5598 15.45 10.4322 16.0657 10.4748C16.6814 10.5174 17.2736 10.7284 17.7775 11.0848C18.2814 11.4412 18.6776 11.9292 18.9229 12.4956C19.1681 13.0619 19.253 13.6848 19.1682 14.2962C19.0834 14.9075 18.8321 15.4837 18.4419 15.9619C18.0517 16.4401 17.5376 16.8019 16.9557 17.0076C16.8809 17.034 16.8162 17.083 16.7704 17.1478C16.7246 17.2125 16.7001 17.2899 16.7001 17.3692V17.583C16.7001 18.0616 16.3121 18.4497 15.8335 18.4497C15.3548 18.4497 14.9668 18.0616 14.9668 17.583L14.9668 17.3701C14.9667 16.9324 15.1022 16.5049 15.3549 16.1474C15.6076 15.7898 15.965 15.5194 16.3779 15.3734C16.6602 15.2736 16.9096 15.0981 17.099 14.8661C17.2883 14.6341 17.4101 14.3545 17.4513 14.0579C17.4925 13.7614 17.4513 13.4592 17.3323 13.1844C17.2133 12.9096 17.0211 12.6728 16.7766 12.4999C16.5321 12.327 16.2448 12.2247 15.9461 12.204Z" fill="#2044C8"/>
<path d="M15.8999 19.666C15.7021 19.666 15.5088 19.7247 15.3443 19.8345C15.1799 19.9444 15.0517 20.1006 14.976 20.2833C14.9003 20.4661 14.8805 20.6671 14.9191 20.8611C14.9577 21.0551 15.0529 21.2333 15.1928 21.3731C15.3326 21.513 15.5108 21.6082 15.7048 21.6468C15.8988 21.6854 16.0999 21.6656 16.2826 21.5899C16.4653 21.5142 16.6215 21.386 16.7314 21.2216C16.8413 21.0571 16.8999 20.8638 16.8999 20.666C16.8999 20.4008 16.7945 20.1464 16.607 19.9589C16.4195 19.7714 16.1651 19.666 15.8999 19.666Z" fill="#2044C8"/>
<path fill-rule="evenodd" clip-rule="evenodd" d="M16.0001 6.20013C10.5877 6.20013 6.20013 10.5877 6.20013 16.0001C6.20013 21.4125 10.5877 25.8001 16.0001 25.8001C21.4125 25.8001 25.8001 21.4125 25.8001 16.0001C25.8001 10.5877 21.4125 6.20013 16.0001 6.20013ZM4.4668 16.0001C4.4668 9.63045 9.63045 4.4668 16.0001 4.4668C22.3698 4.4668 27.5335 9.63045 27.5335 16.0001C27.5335 22.3698 22.3698 27.5335 16.0001 27.5335C9.63045 27.5335 4.4668 22.3698 4.4668 16.0001Z" fill="#2044C8"/>
</svg>
