<svg xmlns="http://www.w3.org/2000/svg" xmlns:xlink="http://www.w3.org/1999/xlink" width="52" height="52" viewBox="0 0 52 52">
    <defs>
        <circle id="a" cx="25" cy="25" r="25"/>
    </defs>
    <g fill="none" fill-rule="evenodd" transform="translate(1 1)">
        <mask id="b" fill="#fff">
            <use xlink:href="#a"/>
        </mask>
        <use fill="#FCF8F0" fill-opacity=".4" stroke="#C8C8C8" xlink:href="#a"/>
        <g mask="url(#b)">
            <path fill="#33A8FF" d="M20.598 33.389c-.014.089-.032.177-.04.267-.266 3.258-.195 5.847 1.325 7.376 1.56 1.569 6.359 1.058 8.113-2.986.585-1.35.207-3.128-.585-4.708-1.214 1.155-2.515 1.915-3.843 2.214-1.83.412-3.556-.475-4.97-2.163"/>
            <path fill="#FF6A4C" d="M34.938 22.677c2.13-8.346-2.82-14.124-9.37-14.525-8.28-.506-8.55 6.134-8.55 13.7 0 4.56 1.433 8.974 3.58 11.537.393-2.664 3.305-4.811 5.72-3.583 1.076.547 2.295 1.939 3.093 3.532 2.311-2.2 4.3-5.855 5.527-10.66"/>
            <path fill="#242963" d="M26.318 29.806c-2.416-1.228-5.327.92-5.72 3.583 1.414 1.689 3.139 2.575 4.97 2.163 1.329-.299 2.629-1.06 3.843-2.214-.799-1.593-2.017-2.986-3.093-3.532"/>
        </g>
    </g>
</svg>
