<?xml version="1.0" encoding="UTF-8"?>
<svg width="22px" height="22px" viewBox="0 0 22 22" version="1.1" xmlns="http://www.w3.org/2000/svg" xmlns:xlink="http://www.w3.org/1999/xlink">
    <!-- Generator: Sketch 61 (89581) - https://sketch.com -->
    <title>icon_search</title>
    <desc>Created with Sketch.</desc>
    <g id="Page-1" stroke="none" stroke-width="1" fill="none" fill-rule="evenodd">
        <g id="icon_search" fill="#000000" fill-rule="nonzero">
            <path d="M14.306308,8.00306885 C14.306308,8.18896863 14.3006811,8.36923509 14.2838005,8.55513488 C14.2781736,8.63400146 14.2669198,8.71286803 14.2612929,8.78610128 C14.2556661,8.81990124 14.2387854,8.95510109 14.2612929,8.79173461 C14.2556661,8.84243455 14.2444123,8.89313449 14.2387854,8.94383444 C14.1825166,9.2931007 14.0981133,9.64236697 13.9855756,9.98036658 C13.9349337,10.1380997 13.8786648,10.2901996 13.8167691,10.4422994 C13.7717541,10.5662326 13.8674111,10.3296328 13.8167691,10.4479327 C13.7998885,10.4817327 13.7886347,10.5155326 13.7717541,10.5493326 C13.7323659,10.6394658 13.6873508,10.7295991 13.6423357,10.8197323 C13.484783,11.1295653 13.3047227,11.4281316 13.1077818,11.7097979 C13.0627667,11.7717645 13.0233785,11.8280978 12.9783635,11.8900644 C13.0796474,11.7604979 12.9277215,11.9463977 12.905214,11.9801976 C12.7870494,12.1210308 12.663258,12.261864 12.5338396,12.3914305 C12.421302,12.504097 12.3087643,12.6167636 12.1905997,12.7237968 C12.128704,12.78013 12.0611814,12.8364633 11.9936588,12.8927966 C11.9598975,12.9209632 11.7460759,13.089963 11.8754943,12.9885631 C11.6110307,13.1913629 11.3296865,13.3716294 11.0370886,13.5349958 C10.8851627,13.6194957 10.72761,13.6983623 10.5700572,13.7715956 C10.530669,13.7884955 10.3055937,13.8842621 10.4631464,13.8222955 C10.3843701,13.8560955 10.2999668,13.8842621 10.2155636,13.9180621 C9.88357742,14.0419953 9.54033752,14.1377618 9.19709761,14.2053617 C9.10706747,14.2222617 9.02266422,14.2391617 8.93263408,14.2560617 C8.89324589,14.261695 8.85385771,14.2673283 8.82009641,14.2729617 C8.6850512,14.295495 8.94951473,14.261695 8.81446952,14.2729617 C8.63440924,14.2898616 8.44872208,14.3067616 8.2686618,14.3123949 C7.90291436,14.3236616 7.53154004,14.3123949 7.1657926,14.2729617 C7.06450869,14.261695 7.18267325,14.278595 7.1995539,14.278595 C7.14891195,14.2729617 7.09827,14.261695 7.04762804,14.2560617 C6.97447855,14.244795 6.89570218,14.227895 6.82255269,14.2166284 C6.63686553,14.1771951 6.45117837,14.1377618 6.26549121,14.0814285 C6.10793846,14.0363619 5.95038572,13.985662 5.79845986,13.9293287 C5.71405661,13.9011621 5.63528023,13.8673621 5.55087698,13.8335622 C5.46084684,13.7997622 5.56775763,13.8391955 5.5790114,13.8448288 C5.52274256,13.8222955 5.46647372,13.7941289 5.41020489,13.7659622 C5.0950994,13.6194957 4.79124768,13.4504959 4.50427661,13.2589628 C4.3692314,13.1688296 4.23981308,13.0786964 4.11039475,12.9829298 C4.23981308,13.0786964 4.0597528,12.9378632 4.02036461,12.9096966 C3.94721513,12.84773 3.86843875,12.78013 3.79528927,12.7181634 C3.54770638,12.4928304 3.31700415,12.2562306 3.10318257,12.0027309 C3.08067504,11.9801976 2.94000294,11.7999312 2.98501801,11.8562644 C3.03003308,11.918231 2.90061476,11.7379646 2.87248034,11.7041646 C2.77119643,11.5633314 2.67553941,11.4168649 2.59113616,11.2703984 C2.50110602,11.1239319 2.41670276,10.9718321 2.33792639,10.814099 C2.30416509,10.746499 2.27040379,10.6788991 2.24226937,10.6112992 C2.22538872,10.5718659 2.11285104,10.3183662 2.17474676,10.470466 C2.04532844,10.1437331 1.93279076,9.80573345 1.84838751,9.46210051 C1.80337244,9.28746737 1.76961114,9.11283424 1.74147672,8.93820111 C1.73022295,8.88750117 1.7133423,8.70723471 1.73022295,8.85370121 C1.71896918,8.75230132 1.70771542,8.64526811 1.70208853,8.54386823 C1.67395411,8.17770198 1.67395411,7.80590241 1.70208853,7.43973616 C1.70771542,7.34960293 1.71896918,7.2594697 1.73022295,7.16933647 C1.74147672,7.06793659 1.72459607,7.18623645 1.72459607,7.20313643 C1.73022295,7.15243649 1.74147672,7.10173655 1.7471036,7.05103661 C1.77523802,6.87640347 1.80899932,6.69613701 1.85401439,6.52713721 C1.93841765,6.18350427 2.04532844,5.85113798 2.18037365,5.5187717 C2.12410481,5.66523819 2.20850806,5.4568051 2.2310156,5.41173848 C2.2647769,5.34413856 2.29291132,5.27653864 2.32667262,5.20893872 C2.41107588,5.03993891 2.50110602,4.88220576 2.59676304,4.71883928 C2.68116629,4.58363943 2.76556955,4.44843959 2.86122657,4.31323974 C2.91186853,4.24000649 2.96251048,4.17240657 3.01315243,4.10480665 C2.91749541,4.22873984 3.07504815,4.0315734 3.10880946,3.98650679 C3.32825792,3.72174042 3.57021392,3.47387404 3.82905057,3.24290764 C3.88531941,3.1922077 3.94158824,3.14714108 3.99785708,3.09644114 C4.03724527,3.06264118 4.07663345,3.03447454 4.11039475,3.00067458 C4.11602164,2.99504126 4.21730554,2.91617468 4.13852917,2.97814127 C4.07663345,3.02320789 4.26232061,2.88800804 4.29045503,2.86547474 C4.3692314,2.80914147 4.45363466,2.7528082 4.53803791,2.70210826 C4.8193821,2.5218418 5.11198005,2.35847532 5.41583177,2.21764215 C5.46084684,2.19510884 5.66904154,2.11060894 5.52274256,2.1669422 C5.60151893,2.13314224 5.68592219,2.10497561 5.77032544,2.07117565 C5.93350507,2.00920905 6.10231158,1.95850911 6.27111809,1.90780917 C6.4399246,1.85710923 6.614358,1.81767594 6.78879139,1.78387598 C6.86194088,1.766976 6.94071725,1.75570934 7.01386674,1.73880936 C7.06450869,1.72754271 7.11515065,1.72190938 7.1657926,1.71627605 C7.30083781,1.69374275 7.03637427,1.72754271 7.17141948,1.71627605 C7.53716692,1.67684277 7.90291436,1.65994279 8.27428869,1.67684277 C8.4430952,1.68247609 8.61190171,1.69937607 8.78070822,1.71627605 C8.94951473,1.73317604 8.82009641,1.72190938 8.7863351,1.71627605 C8.82572329,1.72190938 8.86511148,1.72754271 8.89887278,1.73317604 C9.00015668,1.75007602 9.10144059,1.766976 9.2027245,1.7895093 C9.55159129,1.86274255 9.88920431,1.95850911 10.2211904,2.07680897 C10.3055937,2.10497561 10.3843701,2.13877557 10.4687733,2.17257553 C10.3337281,2.11624226 10.4969077,2.18384219 10.5419228,2.20637549 C10.7107293,2.28524207 10.8795358,2.36974197 11.0427155,2.4598752 C11.1833876,2.53874178 11.3184328,2.62324168 11.453478,2.70774158 C11.5266275,2.7528082 11.599777,2.80350814 11.6672996,2.85420808 C11.695434,2.87674139 11.7291953,2.8992747 11.7573297,2.91617468 C11.7742103,2.92744133 11.9317631,3.0457412 11.8473598,2.9837746 C11.7854641,2.93870799 11.93739,3.05700785 11.9655244,3.07954116 C12.033047,3.13587443 12.0949427,3.1922077 12.1624653,3.24854096 C12.2975105,3.37247416 12.4325557,3.50204067 12.5619741,3.63160719 C12.6745117,3.74427373 12.7814225,3.86820692 12.8827064,3.98650679 C12.9108409,4.01467342 13.0458861,4.18930655 13.000871,4.13297328 C12.9446022,4.05974003 13.0177516,4.15550659 13.0233785,4.16677325 C13.0515129,4.20620653 13.0796474,4.24563982 13.1077818,4.28507311 C13.3103496,4.56673945 13.484783,4.86530578 13.6423357,5.17513876 C13.6817239,5.25400533 13.7211121,5.33287191 13.7548734,5.41173848 C13.7773809,5.4568051 13.8617842,5.66523819 13.8055154,5.5187717 C13.873038,5.68213817 13.9293068,5.84550465 13.9855756,6.01450446 C14.0924864,6.35250407 14.1768897,6.70177034 14.2387854,7.05103661 C14.2444123,7.10173655 14.2556661,7.15243649 14.2612929,7.20313643 C14.2612929,7.19186978 14.2444123,7.06793659 14.2556661,7.16933647 C14.2669198,7.2594697 14.2725467,7.34960293 14.2838005,7.43973616 C14.2950542,7.6369026 14.306308,7.82280239 14.306308,8.00306885 C14.306308,8.44246834 14.694563,8.87060119 15.1503406,8.84806788 C15.6061181,8.82553457 15.9943731,8.4762683 15.9943731,8.00306885 C15.9774925,4.6399727 13.8505304,1.63740948 10.7107293,0.471310815 C7.62719706,-0.672254541 3.95846889,0.319210989 1.87089504,2.85984141 C0.801787141,4.16677325 0.1603224,5.72720479 0.025277191,7.41156953 C-0.109768018,9.04523432 0.300994492,10.7295991 1.14502705,12.1322974 C2.89498788,15.0278275 6.31613316,16.5037591 9.61911389,15.8446599 C12.7870494,15.2193606 15.3979234,12.520997 15.8874623,9.32126734 C15.9549849,8.88186784 16,8.44810167 16,8.00306885 C16,7.56366935 15.611745,7.13553651 15.1559674,7.15806982 C14.6889361,7.18060312 14.306308,7.52986939 14.306308,8.00306885 Z" id="Path"></path>
            <path d="M12.2644603,13.5759357 C13.1800186,14.491494 14.0955769,15.4070523 15.0111352,16.3226106 C16.4772657,17.7887411 17.9495824,19.2610578 19.415713,20.7271884 C19.749768,21.0612434 20.0900093,21.4014847 20.4240643,21.7355397 C20.776678,22.0881534 21.3829261,22.0881534 21.7355397,21.7355397 C22.0881534,21.3829261 22.0881534,20.776678 21.7355397,20.4240643 C20.8199814,19.508506 19.9044231,18.5929477 18.9888648,17.6773894 C17.5227343,16.2112589 16.0504176,14.7389422 14.584287,13.2728116 C14.250232,12.9387566 13.9099907,12.5985153 13.5759357,12.2644603 C13.223322,11.9118466 12.6170739,11.9118466 12.2644603,12.2644603 C11.9118466,12.6232601 11.9118466,13.223322 12.2644603,13.5759357 L12.2644603,13.5759357 Z" id="Path"></path>
        </g>
    </g>
</svg>