<svg xmlns="http://www.w3.org/2000/svg" xmlns:xlink="http://www.w3.org/1999/xlink" width="23" height="22" viewBox="0 0 23 22">
    <defs>
        <path id="a" d="M10.481.63c2.847 0 4.667 4.668 4.667 10.37 0 5.868-1.79 10.37-4.667 10.37H9.444c-.275 0-.538-.109-.733-.303L3.83 16.185H2.704A2.074 2.074 0 0 1 .63 14.111V7.89c0-1.146.928-2.074 2.074-2.074H3.83L8.71.933C8.906.74 9.17.63 9.444.63h1.037zm0 2.074h-.607L5.29 7.287c-.386.384-.907.6-1.456.602h-1.13v6.222h1.134a2.077 2.077 0 0 1 1.455.605l4.581 4.58h.607c1.209 0 2.593-3.481 2.593-8.296 0-4.641-1.425-8.296-2.593-8.296zm11.5 3.893c.364 1.438.509 2.922.428 4.403.08 1.48-.064 2.965-.427 4.403a1.037 1.037 0 0 1-2.011-.51 12.62 12.62 0 0 0 .364-3.832v-.122a12.62 12.62 0 0 0-.364-3.833 1.037 1.037 0 1 1 2.01-.509zM9.767 6.243a1.037 1.037 0 0 1-.232 1.449c-.06.043-.225.222-.416.568-.361.655-.586 1.552-.586 2.74 0 1.188.225 2.085.586 2.74.191.346.356.525.416.568a1.037 1.037 0 1 1-1.217 1.68c-.297-.216-.669-.62-1.015-1.246-.533-.966-.844-2.208-.844-3.742 0-1.534.311-2.776.844-3.742.346-.626.718-1.03 1.015-1.246a1.037 1.037 0 0 1 1.449.231zm9.208 2.429c.193.76.27 1.545.23 2.328a7.871 7.871 0 0 1-.23 2.328 1.037 1.037 0 0 1-2.01-.508 5.797 5.797 0 0 0 .167-1.76v-.12a5.797 5.797 0 0 0-.167-1.76 1.037 1.037 0 1 1 2.01-.508zm-8.493.254c.384 0 .695.929.695 2.074 0 1.145-.31 2.074-.695 2.074-.383 0-.694-.929-.694-2.074 0-1.145.31-2.074.694-2.074z"/>
    </defs>
    <g fill="none" fill-rule="evenodd">
        <mask id="b" fill="#fff">
            <use xlink:href="#a"/>
        </mask>
        <use fill="#5B6B80" fill-rule="nonzero" xlink:href="#a"/>
        <g fill="#5B6B80" mask="url(#b)">
            <path d="M-5-5h32v32H-5z"/>
        </g>
    </g>
</svg>
