<svg xmlns="http://www.w3.org/2000/svg" width="48" height="48" viewBox="0 0 48 48">
    <g fill="none" fill-rule="evenodd" transform="matrix(1 0 0 -1 0 48)">
        <circle cx="24" cy="24" r="24" fill="#0F76DE"/>
        <path fill="#FFF" fill-rule="nonzero" d="M24 15c.874 0 1.583.709 1.583 1.583v5.833l5.834.001c.826 0 1.504.632 1.577 1.439L33 24c0 .874-.709 1.583-1.583 1.583h-5.834v5.834c0 .826-.632 1.504-1.439 1.577L24 33a1.583 1.583 0 0 1-1.583-1.583l-.001-5.834h-5.833a1.583 1.583 0 0 1-1.577-1.439L15 24c0-.874.709-1.583 1.583-1.583l5.833-.001.001-5.833c0-.826.632-1.504 1.439-1.577z"/>
    </g>
</svg>
