<svg xmlns="http://www.w3.org/2000/svg" xmlns:xlink="http://www.w3.org/1999/xlink" width="17" height="19" viewBox="0 0 17 19">
    <defs>
        <path id="a" d="M16.333 12.667V.907c0-.466-.39-.84-.875-.84H3.5C1.568.067 0 1.572 0 3.427v11.2c0 1.855 1.568 3.36 3.5 3.36h11.958c.485 0 .875-.375.875-.84v-.56c0-.263-.127-.5-.324-.655-.153-.539-.153-2.075 0-2.614a.822.822 0 0 0 .324-.651zM4.667 4.757c0-.116.098-.21.218-.21h7.73c.12 0 .218.094.218.21v.7c0 .115-.098.21-.218.21h-7.73a.215.215 0 0 1-.218-.21v-.7zm0 2.24c0-.116.098-.21.218-.21h7.73c.12 0 .218.094.218.21v.7c0 .115-.098.21-.218.21h-7.73a.215.215 0 0 1-.218-.21v-.7zm9.238 8.75H3.5c-.645 0-1.167-.5-1.167-1.12 0-.616.525-1.12 1.167-1.12h10.405c-.07.598-.07 1.641 0 2.24z"/>
    </defs>
    <g fill="none" fill-rule="evenodd" transform="translate(0 .333)">
        <mask id="b" fill="#fff">
            <use xlink:href="#a"/>
        </mask>
        <use fill="#5B6B80" fill-rule="nonzero" xlink:href="#a"/>
        <g fill="#5B6B80" mask="url(#b)">
            <path d="M-8-6.333h36v36H-8z"/>
        </g>
    </g>
</svg>
