<svg width="32" height="32" viewBox="0 0 32 32" fill="none" xmlns="http://www.w3.org/2000/svg">
<path fill-rule="evenodd" clip-rule="evenodd" d="M16.0001 6.20013C10.5877 6.20013 6.20013 10.5877 6.20013 16.0001C6.20013 21.4125 10.5877 25.8001 16.0001 25.8001C21.4125 25.8001 25.8001 21.4125 25.8001 16.0001C25.8001 10.5877 21.4125 6.20013 16.0001 6.20013ZM4.4668 16.0001C4.4668 9.63045 9.63045 4.4668 16.0001 4.4668C22.3698 4.4668 27.5335 9.63045 27.5335 16.0001C27.5335 22.3698 22.3698 27.5335 16.0001 27.5335C9.63045 27.5335 4.4668 22.3698 4.4668 16.0001Z" fill="#E6A701"/>
<path fill-rule="evenodd" clip-rule="evenodd" d="M16 9.7998C16.4786 9.7998 16.8666 10.1878 16.8666 10.6665L16.8666 17.3331C16.8666 17.8118 16.4786 18.1998 16 18.1998C15.5213 18.1998 15.1333 17.8118 15.1333 17.3331L15.1333 10.6665C15.1333 10.1878 15.5213 9.7998 16 9.7998Z" fill="#E6A701"/>
<path d="M17 21C17 21.5523 16.5523 22 16 22C15.4477 22 15 21.5523 15 21C15 20.4477 15.4477 20 16 20C16.5523 20 17 20.4477 17 21Z" fill="#E6A701"/>
<path fill-rule="evenodd" clip-rule="evenodd" d="M16 20.6667C15.8159 20.6667 15.6667 20.8159 15.6667 21C15.6667 21.1841 15.8159 21.3333 16 21.3333C16.1841 21.3333 16.3333 21.1841 16.3333 21C16.3333 20.8159 16.1841 20.6667 16 20.6667ZM16 22C16.5523 22 17 21.5523 17 21C17 20.4477 16.5523 20 16 20C15.4477 20 15 20.4477 15 21C15 21.5523 15.4477 22 16 22Z" fill="#E6A701"/>
</svg>
