<svg xmlns="http://www.w3.org/2000/svg" width="24" height="24" fill="currentColor" viewBox="0 0 24 24">
  <path fill-rule="evenodd" d="M9.663 12.386a.875.875 0 0 0-1.237 0L5.12 15.692a.991.991 0 0 0 0 1.402l1.992 1.99a.991.991 0 0 0 1.401 0l3.306-3.305a.875.875 0 0 0 0-1.237l-.154-.154a.65.65 0 1 1 .92-.919l.153.154c.85.85.85 2.226 0 3.075l-3.306 3.306a2.291 2.291 0 0 1-3.24 0l-1.991-1.991a2.291 2.291 0 0 1 0-3.24l3.306-3.306a2.173 2.173 0 0 1 3.075 0l.154.154a.65.65 0 1 1-.92.92l-.153-.155Zm4.662-.567a.875.875 0 0 0 1.237 0l3.306-3.306a.991.991 0 0 0 0-1.402l-1.992-1.99a.991.991 0 0 0-1.401 0l-3.306 3.305a.875.875 0 0 0 0 1.237l.154.154a.65.65 0 1 1-.92.919l-.153-.154a2.174 2.174 0 0 1 0-3.075L14.555 4.2a2.291 2.291 0 0 1 3.24 0l1.992 1.991a2.291 2.291 0 0 1 0 3.24l-3.306 3.306c-.85.85-2.226.85-3.075 0l-.154-.154a.65.65 0 1 1 .919-.92l.154.155Z" clip-rule="evenodd"/>
  <path fill-rule="evenodd" d="M15.696 8.42a.65.65 0 0 1 0 .92L8.85 16.185a.65.65 0 0 1-.92-.92l6.847-6.846a.65.65 0 0 1 .92 0Z" clip-rule="evenodd"/>
</svg>
