<svg xmlns="http://www.w3.org/2000/svg" width="24" height="24" fill="currentColor" viewBox="0 0 24 24">
  <path fill-rule="evenodd" d="M8.306 8.598a.65.65 0 0 1 .193.459l.026 5.172a.65.65 0 0 1-.646.654l-1.56.008a3.237 3.237 0 0 1-.033-6.472h.008l1.551-.009a.65.65 0 0 1 .46.188Zm-2.001 1.12a1.936 1.936 0 0 0 .02 3.873l.897-.005-.02-3.872-.897.005Z" clip-rule="evenodd"/>
  <path fill-rule="evenodd" d="M17.444 5.33a.65.65 0 0 1 .347.571l.06 11.38a.65.65 0 0 1-1.008.546l-.786-.518a14.723 14.723 0 0 0-8.178-2.427.65.65 0 0 1-.654-.646l-.029-5.173a.65.65 0 0 1 .647-.654 14.73 14.73 0 0 0 8.155-2.517l.779-.526a.65.65 0 0 1 .667-.036Zm-.947 1.79A16.031 16.031 0 0 1 8.5 9.694l.022 3.9c2.845.1 5.614.955 8.022 2.483l-.047-8.955Zm3.281 2.536a.65.65 0 0 1 .653.646l.012 2.07a.65.65 0 1 1-1.3.007l-.012-2.07a.65.65 0 0 1 .647-.653Z" clip-rule="evenodd"/>
  <path fill-rule="evenodd" d="M7.872 13.583a.65.65 0 0 1 .653.646 4.344 4.344 0 0 0 1.37 3.143.65.65 0 1 1-.89.948 5.644 5.644 0 0 1-1.78-4.084.65.65 0 0 1 .647-.653Z" clip-rule="evenodd"/>
</svg>
