<svg xmlns="http://www.w3.org/2000/svg" width="24" height="24" fill="currentColor" viewBox="0 0 24 24">
  <path fill-rule="evenodd" d="M12 6.4a.65.65 0 0 1 .65.65v12.223a.65.65 0 1 1-1.3 0V7.05A.65.65 0 0 1 12 6.4Z" clip-rule="evenodd"/>
  <path fill-rule="evenodd" d="M4.008 4.135c.128-.048.264-.07.4-.064 2.807.123 5.537.957 7.932 2.425a.65.65 0 0 1-.68 1.109 15.258 15.258 0 0 0-7.01-2.22v11.273a9.937 9.937 0 0 1 6.97 1.935c.097.03.201.04.304.027a.65.65 0 0 1 .154 1.29 2.04 2.04 0 0 1-1.023-.14.652.652 0 0 1-.146-.084 8.638 8.638 0 0 0-6.469-1.693.655.655 0 0 1-.12.006 1.015 1.015 0 0 1-.97-1.012V5.077a1.01 1.01 0 0 1 .658-.942Z" clip-rule="evenodd"/>
  <path fill-rule="evenodd" d="M19.592 4.07a1.016 1.016 0 0 1 1.058 1.013v11.904a1.014 1.014 0 0 1-.97 1.012c-.04.002-.08 0-.12-.006a8.638 8.638 0 0 0-6.469 1.693.652.652 0 0 1-.146.084 2.04 2.04 0 0 1-1.023.14.65.65 0 0 1 .154-1.29.739.739 0 0 0 .305-.027 9.937 9.937 0 0 1 6.969-1.935V5.386a15.258 15.258 0 0 0-7.01 2.219.65.65 0 1 1-.68-1.109 16.558 16.558 0 0 1 7.931-2.425Zm.028.65ZM5.477 10.674a.65.65 0 0 1 .694-.602c1.329.095 2.64.358 3.902.782a.65.65 0 0 1-.415 1.232c-1.158-.39-2.36-.63-3.58-.718a.65.65 0 0 1-.601-.694Zm0 2.983a.65.65 0 0 1 .694-.602c1.329.095 2.64.358 3.902.782a.65.65 0 0 1-.415 1.232c-1.158-.39-2.36-.63-3.58-.718a.65.65 0 0 1-.601-.694Z" clip-rule="evenodd"/>
  <path fill-rule="evenodd" d="M18.52 10.674a.65.65 0 0 1-.601.694 14.468 14.468 0 0 0-3.58.718.65.65 0 0 1-.414-1.232 15.767 15.767 0 0 1 3.901-.782.65.65 0 0 1 .695.602Zm0 2.983a.65.65 0 0 1-.601.694 14.468 14.468 0 0 0-3.58.718.65.65 0 1 1-.414-1.232 15.767 15.767 0 0 1 3.901-.782.65.65 0 0 1 .695.602Z" clip-rule="evenodd"/>
</svg>
