<svg xmlns="http://www.w3.org/2000/svg" width="24" height="24" fill="currentColor" viewBox="0 0 24 24">
  <path fill-rule="evenodd" d="M8.124 6.65a2.425 2.425 0 1 0 0 4.85 2.425 2.425 0 0 0 0-4.85ZM4.4 9.075a3.725 3.725 0 1 1 7.449 0 3.725 3.725 0 0 1-7.45 0Zm12.1.146a1.707 1.707 0 1 0 0 3.415 1.707 1.707 0 0 0 0-3.415Zm-3.007 1.708a3.007 3.007 0 1 1 6.014 0 3.007 3.007 0 0 1-6.014 0Z" clip-rule="evenodd"/>
  <path fill-rule="evenodd" d="M8.124 13.824a4.474 4.474 0 0 0-4.474 4.474.65.65 0 0 1-1.3 0 5.774 5.774 0 1 1 11.548 0 .65.65 0 0 1-1.3 0 4.474 4.474 0 0 0-4.474-4.474Zm8.264 1.025c-.656 0-1.273.159-1.816.44a.65.65 0 1 1-.597-1.155 5.262 5.262 0 0 1 7.675 4.677.65.65 0 1 1-1.3 0 3.962 3.962 0 0 0-3.962-3.962Z" clip-rule="evenodd"/>
</svg>
